# xmcd
#
# Track frame offsets: 
#        150
#        25822
#        51433
#        72680
#        92272
#        110157
#        129993
#        154762
#
# Disc length: 2347 seconds
#
# Revision: 1
# Processed by: cddbd v1.5.2PL0 Copyright (c) Steve Scherf et al.
# Submitted via: ExactAudioCopy v0.95b4
#
DISCID=6a092908
DTITLE=The Three Sounds - Here We Come
DYEAR=1960
DGENRE=Jazz
TTITLE0=Now's The Time
TTITLE1=Summertime
TTITLE2=Here We Come
TTITLE3=Just Squeeze Me
TTITLE4=Broadway
TTITLE5=Our Love Is Here To Stay
TTITLE6=Poinciana
TTITLE7=Sonnymoon For Two
EXTD=YEAR: 1960
EXTT0=
EXTT1=
EXTT2=
EXTT3=
EXTT4=
EXTT5=
EXTT6=
EXTT7=
PLAYORDER=
